<svg xmlns="http://www.w3.org/2000/svg" width="24" height="24" viewBox="0 0 24 24" fill="none">
  <path d="M2 12L7 3L17 3L22 12L17 21L7 21ZM3.83 12L7.94 4.6L16.06 4.6L20.17 12L16.06 19.4L7.94 19.4ZM15.2 8.6C13.8 8.6 12.7 9.5 12 10.3C11.3 9.5 10.2 8.6 8.8 8.6C6.8 8.6 5.2 10.1 5.2 12C5.2 13.9 6.8 15.4 8.8 15.4C10.2 15.4 11.3 14.5 12 13.7C12.7 14.5 13.8 15.4 15.2 15.4C17.2 15.4 18.8 13.9 18.8 12C18.8 10.1 17.2 8.6 15.2 8.6ZM8.8 13.7C7.7 13.7 6.95 13 6.95 12C6.95 11 7.7 10.3 8.8 10.3C9.6 10.3 10.2 11 10.7 12C10.2 13 9.6 13.7 8.8 13.7ZM15.2 13.7C14.4 13.7 13.8 13 13.3 12C13.8 11 14.4 10.3 15.2 10.3C16.3 10.3 17.05 11 17.05 12C17.05 13 16.3 13.7 15.2 13.7Z" fill="#000" fill-rule="evenodd"/>
</svg>
